<svg width="480" height="48" viewBox="0 0 480 48" fill="none" xmlns="http://www.w3.org/2000/svg">
<rect x="0.5" y="0.5" width="479" height="47" rx="7.5" fill="white"/>
<rect x="0.5" y="0.5" width="479" height="47" rx="7.5" stroke="#FF3939"/>
<path d="M24.523 27.7207C24.5929 27.7903 24.6484 27.8731 24.6862 27.9643C24.7241 28.0555 24.7436 28.1532 24.7436 28.2519C24.7436 28.3506 24.7241 28.4484 24.6862 28.5395C24.6484 28.6307 24.5929 28.7135 24.523 28.7832L24.1517 29.1544C23.4483 29.8579 22.4941 30.2531 21.4992 30.2531C20.5044 30.2531 19.5502 29.8579 18.8467 29.1544C18.1433 28.4509 17.748 27.4968 17.748 26.5019C17.748 25.507 18.1433 24.5529 18.8467 23.8494L20.3542 22.3425C21.0302 21.6649 21.9396 21.2714 22.8963 21.2426C23.8529 21.2138 24.7844 21.5518 25.4999 22.1875C25.5737 22.2532 25.634 22.3328 25.6771 22.4217C25.7202 22.5106 25.7454 22.6072 25.7512 22.7058C25.757 22.8045 25.7433 22.9033 25.7109 22.9967C25.6785 23.0901 25.628 23.1762 25.5624 23.25C25.4967 23.3239 25.4171 23.3841 25.3282 23.4272C25.2393 23.4703 25.1427 23.4955 25.0441 23.5013C24.9454 23.5071 24.8466 23.4934 24.7532 23.4611C24.6598 23.4287 24.5737 23.3782 24.4999 23.3125C24.0708 22.9315 23.5124 22.7288 22.9388 22.7458C22.3652 22.7629 21.8199 22.9985 21.4142 23.4044L19.908 24.9094C19.486 25.3314 19.2489 25.9038 19.2489 26.5007C19.2489 27.0975 19.486 27.6699 19.908 28.0919C20.33 28.5139 20.9024 28.751 21.4992 28.751C22.0961 28.751 22.6685 28.5139 23.0905 28.0919L23.4617 27.7207C23.5314 27.6509 23.6141 27.5956 23.7052 27.5579C23.7962 27.5201 23.8938 27.5007 23.9924 27.5007C24.0909 27.5007 24.1885 27.5201 24.2796 27.5579C24.3706 27.5956 24.4533 27.6509 24.523 27.7207ZM29.153 18.8457C28.4489 18.1432 27.495 17.7488 26.5005 17.7488C25.506 17.7488 24.5521 18.1432 23.848 18.8457L23.4767 19.2169C23.3359 19.3578 23.2567 19.5489 23.2567 19.7482C23.2567 19.9474 23.3359 20.1385 23.4767 20.2794C23.6176 20.4203 23.8087 20.4995 24.008 20.4995C24.2073 20.4995 24.3984 20.4203 24.5392 20.2794L24.9105 19.9082C25.3325 19.4861 25.9049 19.249 26.5017 19.249C27.0986 19.249 27.671 19.4861 28.093 19.9082C28.515 20.3302 28.7521 20.9026 28.7521 21.4994C28.7521 22.0962 28.515 22.6686 28.093 23.0907L26.5861 24.5982C26.1801 25.0039 25.6345 25.2391 25.0607 25.2557C24.487 25.2724 23.9286 25.0691 23.4999 24.6875C23.426 24.6219 23.3399 24.5714 23.2466 24.539C23.1532 24.5066 23.0543 24.4929 22.9557 24.4987C22.857 24.5045 22.7605 24.5297 22.6715 24.5728C22.5826 24.6159 22.503 24.6762 22.4374 24.75C22.3717 24.8239 22.3212 24.91 22.2888 25.0033C22.2565 25.0967 22.2428 25.1956 22.2486 25.2942C22.2544 25.3929 22.2796 25.4894 22.3227 25.5784C22.3658 25.6673 22.426 25.7469 22.4999 25.8125C23.2149 26.4481 24.1457 26.7863 25.1019 26.7581C26.0581 26.7299 26.9674 26.3373 27.6436 25.6607L29.1511 24.1538C29.8543 23.4499 30.2495 22.4957 30.2499 21.5007C30.2502 20.5057 29.8557 19.5513 29.153 18.8469V18.8457Z" fill="#737373"/>
<path d="M48.528 30V19.632H44.576V18.48H53.792V19.632H49.84V30H48.528ZM57.2959 30.16C56.5172 30.16 55.8292 29.9787 55.2319 29.616C54.6345 29.2427 54.1652 28.736 53.8239 28.096C53.4825 27.456 53.3119 26.72 53.3119 25.888C53.3119 25.056 53.4772 24.3253 53.8079 23.696C54.1492 23.056 54.6239 22.56 55.2319 22.208C55.8399 21.856 56.5385 21.68 57.3279 21.68C58.0852 21.68 58.7412 21.8453 59.2959 22.176C59.8612 22.5067 60.2932 22.9707 60.5919 23.568C60.9012 24.1653 61.0559 24.8693 61.0559 25.68C61.0559 25.7867 61.0505 25.888 61.0399 25.984C61.0399 26.08 61.0292 26.1867 61.0079 26.304H54.2719V25.232H60.2239L59.8079 25.824C59.8079 24.8427 59.5892 24.0907 59.1519 23.568C58.7252 23.0347 58.1172 22.768 57.3279 22.768C56.5172 22.768 55.8612 23.0507 55.3599 23.616C54.8692 24.1707 54.6239 24.9227 54.6239 25.872C54.6239 26.8427 54.8692 27.6213 55.3599 28.208C55.8612 28.784 56.5279 29.072 57.3599 29.072C57.8825 29.072 58.3412 28.96 58.7359 28.736C59.1305 28.5013 59.4185 28.1707 59.5999 27.744H60.8159C60.5492 28.4907 60.1012 29.0827 59.4719 29.52C58.8532 29.9467 58.1279 30.16 57.2959 30.16ZM67.9566 30L65.2526 26.208L62.0206 21.84H63.5086L66.0046 25.344L69.4446 30H67.9566ZM65.3326 25.408L67.8926 21.84H69.3326L66.0046 26.272L65.3326 25.408ZM65.8766 26.288L63.1086 30H61.6526L65.2526 25.376L65.8766 26.288ZM74.4971 30.144C73.5905 30.144 72.9291 29.9413 72.5131 29.536C72.1078 29.12 71.9051 28.5227 71.9051 27.744V19.936L73.1851 19.456V27.728C73.1851 28.1867 73.3025 28.5227 73.5371 28.736C73.7718 28.9493 74.1558 29.056 74.6891 29.056C74.9025 29.056 75.0838 29.0453 75.2331 29.024C75.3931 28.992 75.5211 28.9547 75.6171 28.912V30C75.5105 30.0427 75.3558 30.0747 75.1531 30.096C74.9611 30.128 74.7425 30.144 74.4971 30.144ZM70.2251 22.928V21.84H75.6171V22.928H70.2251ZM80.5635 30V18.48H81.8755V30H80.5635ZM81.2355 25.056V23.904H87.4435V25.056H81.2355ZM81.2355 19.632V18.48H87.8915V19.632H81.2355ZM89.78 30V21.84H91.06V30H89.78ZM89.684 19.984V18.48H91.156V19.984H89.684ZM96.9365 30.16C96.1578 30.16 95.4698 29.9787 94.8725 29.616C94.2752 29.2427 93.8058 28.736 93.4645 28.096C93.1232 27.456 92.9525 26.72 92.9525 25.888C92.9525 25.056 93.1178 24.3253 93.4485 23.696C93.7898 23.056 94.2645 22.56 94.8725 22.208C95.4805 21.856 96.1792 21.68 96.9685 21.68C97.7258 21.68 98.3818 21.8453 98.9365 22.176C99.5018 22.5067 99.9338 22.9707 100.233 23.568C100.542 24.1653 100.697 24.8693 100.697 25.68C100.697 25.7867 100.691 25.888 100.681 25.984C100.681 26.08 100.67 26.1867 100.649 26.304H93.9125V25.232H99.8645L99.4485 25.824C99.4485 24.8427 99.2298 24.0907 98.7925 23.568C98.3658 23.0347 97.7578 22.768 96.9685 22.768C96.1578 22.768 95.5018 23.0507 95.0005 23.616C94.5098 24.1707 94.2645 24.9227 94.2645 25.872C94.2645 26.8427 94.5098 27.6213 95.0005 28.208C95.5018 28.784 96.1685 29.072 97.0005 29.072C97.5232 29.072 97.9818 28.96 98.3765 28.736C98.7712 28.5013 99.0592 28.1707 99.2405 27.744H100.457C100.19 28.4907 99.7418 29.0827 99.1125 29.52C98.4938 29.9467 97.7685 30.16 96.9365 30.16ZM102.624 30V18.48H103.904V30H102.624ZM112.404 30V28.096L112.564 28.144C112.361 28.7627 111.988 29.2533 111.444 29.616C110.91 29.9787 110.27 30.16 109.524 30.16C108.788 30.16 108.142 29.984 107.588 29.632C107.044 29.28 106.617 28.7893 106.308 28.16C106.009 27.5307 105.86 26.7947 105.86 25.952C105.86 25.0987 106.014 24.352 106.324 23.712C106.633 23.072 107.065 22.576 107.62 22.224C108.174 21.872 108.825 21.696 109.572 21.696C110.34 21.696 110.985 21.8827 111.508 22.256C112.03 22.6293 112.388 23.1573 112.58 23.84L112.324 23.872V18.48H113.604V30H112.404ZM109.764 29.04C110.585 29.04 111.225 28.7627 111.684 28.208C112.153 27.6427 112.388 26.8747 112.388 25.904C112.388 24.9547 112.153 24.2027 111.684 23.648C111.214 23.0933 110.574 22.816 109.764 22.816C108.953 22.816 108.318 23.0933 107.86 23.648C107.401 24.2027 107.172 24.9707 107.172 25.952C107.172 26.912 107.401 27.6693 107.86 28.224C108.318 28.768 108.953 29.04 109.764 29.04ZM119.47 30V18.48H120.782V30H119.47ZM120.142 30V28.848H127.182V30H120.142ZM120.142 24.576V23.424H126.606V24.576H120.142ZM120.142 19.632V18.48H127.054V19.632H120.142ZM129.577 30V21.84H130.777V23.92H130.857V30H129.577ZM130.857 25.744L130.649 23.808C130.841 23.1147 131.182 22.5867 131.673 22.224C132.164 21.8613 132.729 21.68 133.369 21.68C133.636 21.68 133.817 21.7013 133.913 21.744V22.976C133.86 22.9547 133.785 22.944 133.689 22.944C133.593 22.9333 133.476 22.928 133.337 22.928C132.526 22.928 131.908 23.1733 131.481 23.664C131.065 24.144 130.857 24.8373 130.857 25.744ZM135.577 30V21.84H136.777V23.92H136.857V30H135.577ZM136.857 25.744L136.649 23.808C136.841 23.1147 137.182 22.5867 137.673 22.224C138.164 21.8613 138.729 21.68 139.369 21.68C139.636 21.68 139.817 21.7013 139.913 21.744V22.976C139.86 22.9547 139.785 22.944 139.689 22.944C139.593 22.9333 139.476 22.928 139.337 22.928C138.526 22.928 137.908 23.1733 137.481 23.664C137.065 24.144 136.857 24.8373 136.857 25.744ZM144.969 30.16C144.169 30.16 143.465 29.9733 142.857 29.6C142.249 29.2267 141.774 28.72 141.433 28.08C141.102 27.4293 140.937 26.6987 140.937 25.888C140.937 25.0667 141.108 24.3413 141.449 23.712C141.79 23.0827 142.26 22.5867 142.857 22.224C143.465 21.8613 144.169 21.68 144.969 21.68C145.78 21.68 146.484 21.8613 147.081 22.224C147.689 22.5867 148.158 23.0827 148.489 23.712C148.83 24.3413 149.001 25.0667 149.001 25.888C149.001 26.6987 148.83 27.4293 148.489 28.08C148.158 28.72 147.689 29.2267 147.081 29.6C146.484 29.9733 145.78 30.16 144.969 30.16ZM144.969 29.072C145.524 29.072 146.004 28.9387 146.409 28.672C146.814 28.3947 147.129 28.016 147.353 27.536C147.577 27.056 147.689 26.5013 147.689 25.872C147.689 24.9333 147.438 24.1813 146.937 23.616C146.446 23.0507 145.79 22.768 144.969 22.768C144.158 22.768 143.502 23.0507 143.001 23.616C142.5 24.1813 142.249 24.9333 142.249 25.872C142.249 26.5013 142.361 27.056 142.585 27.536C142.809 28.016 143.124 28.3947 143.529 28.672C143.945 28.9387 144.425 29.072 144.969 29.072ZM150.921 30V21.84H152.121V23.92H152.201V30H150.921ZM152.201 25.744L151.993 23.808C152.185 23.1147 152.526 22.5867 153.017 22.224C153.507 21.8613 154.073 21.68 154.713 21.68C154.979 21.68 155.161 21.7013 155.257 21.744V22.976C155.203 22.9547 155.129 22.944 155.033 22.944C154.937 22.9333 154.819 22.928 154.681 22.928C153.87 22.928 153.251 23.1733 152.825 23.664C152.409 24.144 152.201 24.8373 152.201 25.744Z" fill="#FF3939"/>
<path d="M360.384 28V19.36H363.816C364.432 19.36 364.956 19.46 365.388 19.66C365.82 19.86 366.148 20.148 366.372 20.524C366.604 20.9 366.72 21.352 366.72 21.88C366.72 22.408 366.604 22.864 366.372 23.248C366.148 23.624 365.82 23.916 365.388 24.124C364.956 24.332 364.432 24.436 363.816 24.436H361.104V23.572H363.78C364.42 23.572 364.904 23.428 365.232 23.14C365.568 22.844 365.736 22.424 365.736 21.88C365.736 21.336 365.572 20.924 365.244 20.644C364.916 20.364 364.428 20.224 363.78 20.224H361.368V28H360.384ZM368.187 28V19.36H369.147V28H368.187ZM373.577 28.12C372.993 28.12 372.477 27.984 372.029 27.712C371.581 27.432 371.229 27.052 370.973 26.572C370.717 26.092 370.589 25.54 370.589 24.916C370.589 24.292 370.713 23.744 370.961 23.272C371.217 22.792 371.573 22.42 372.029 22.156C372.485 21.892 373.009 21.76 373.601 21.76C374.169 21.76 374.661 21.884 375.077 22.132C375.501 22.38 375.825 22.728 376.049 23.176C376.281 23.624 376.397 24.152 376.397 24.76C376.397 24.84 376.393 24.916 376.385 24.988C376.385 25.06 376.377 25.14 376.361 25.228H371.309V24.424H375.773L375.461 24.868C375.461 24.132 375.297 23.568 374.969 23.176C374.649 22.776 374.193 22.576 373.601 22.576C372.993 22.576 372.501 22.788 372.125 23.212C371.757 23.628 371.573 24.192 371.573 24.904C371.573 25.632 371.757 26.216 372.125 26.656C372.501 27.088 373.001 27.304 373.625 27.304C374.017 27.304 374.361 27.22 374.657 27.052C374.953 26.876 375.169 26.628 375.305 26.308H376.217C376.017 26.868 375.681 27.312 375.209 27.64C374.745 27.96 374.201 28.12 373.577 28.12ZM381.564 28C381.532 27.864 381.508 27.708 381.492 27.532C381.484 27.356 381.48 27.132 381.48 26.86H381.42V23.932C381.42 23.468 381.312 23.128 381.096 22.912C380.888 22.688 380.548 22.576 380.076 22.576C379.612 22.576 379.24 22.672 378.96 22.864C378.688 23.048 378.536 23.312 378.504 23.656H377.58C377.62 23.064 377.868 22.6 378.324 22.264C378.78 21.928 379.376 21.76 380.112 21.76C380.872 21.76 381.436 21.94 381.804 22.3C382.172 22.66 382.356 23.2 382.356 23.92V26.86C382.356 27.036 382.368 27.22 382.392 27.412C382.416 27.596 382.448 27.792 382.488 28H381.564ZM379.464 28.12C378.832 28.12 378.328 27.968 377.952 27.664C377.584 27.352 377.4 26.928 377.4 26.392C377.4 25.856 377.584 25.44 377.952 25.144C378.32 24.848 378.856 24.64 379.56 24.52L381.696 24.16V24.952L379.704 25.264C379.256 25.336 378.916 25.456 378.684 25.624C378.452 25.792 378.336 26.036 378.336 26.356C378.336 26.668 378.44 26.904 378.648 27.064C378.864 27.224 379.18 27.304 379.596 27.304C380.132 27.304 380.568 27.184 380.904 26.944C381.248 26.696 381.42 26.376 381.42 25.984L381.576 26.836C381.448 27.244 381.196 27.56 380.82 27.784C380.452 28.008 380 28.12 379.464 28.12ZM386.259 28.12C385.507 28.12 384.907 27.948 384.459 27.604C384.011 27.252 383.755 26.756 383.691 26.116H384.615C384.671 26.508 384.843 26.808 385.131 27.016C385.419 27.224 385.803 27.328 386.283 27.328C386.707 27.328 387.039 27.248 387.279 27.088C387.519 26.928 387.639 26.7 387.639 26.404C387.639 26.196 387.571 26.016 387.435 25.864C387.299 25.704 387.027 25.572 386.619 25.468L385.635 25.216C385.075 25.072 384.655 24.852 384.375 24.556C384.095 24.252 383.955 23.892 383.955 23.476C383.955 22.948 384.151 22.532 384.543 22.228C384.935 21.916 385.467 21.76 386.139 21.76C386.803 21.76 387.343 21.92 387.759 22.24C388.175 22.56 388.411 23.004 388.467 23.572H387.543C387.487 23.244 387.335 22.992 387.087 22.816C386.839 22.64 386.511 22.552 386.103 22.552C385.711 22.552 385.407 22.628 385.191 22.78C384.975 22.924 384.867 23.132 384.867 23.404C384.867 23.612 384.943 23.792 385.095 23.944C385.255 24.096 385.519 24.224 385.887 24.328L386.847 24.592C387.415 24.744 387.843 24.976 388.131 25.288C388.419 25.6 388.563 25.976 388.563 26.416C388.563 26.952 388.359 27.372 387.951 27.676C387.543 27.972 386.979 28.12 386.259 28.12ZM392.573 28.12C391.989 28.12 391.473 27.984 391.025 27.712C390.577 27.432 390.225 27.052 389.969 26.572C389.713 26.092 389.585 25.54 389.585 24.916C389.585 24.292 389.709 23.744 389.957 23.272C390.213 22.792 390.569 22.42 391.025 22.156C391.481 21.892 392.005 21.76 392.597 21.76C393.165 21.76 393.657 21.884 394.073 22.132C394.497 22.38 394.821 22.728 395.045 23.176C395.277 23.624 395.393 24.152 395.393 24.76C395.393 24.84 395.389 24.916 395.381 24.988C395.381 25.06 395.373 25.14 395.357 25.228H390.305V24.424H394.769L394.457 24.868C394.457 24.132 394.293 23.568 393.965 23.176C393.645 22.776 393.189 22.576 392.597 22.576C391.989 22.576 391.497 22.788 391.121 23.212C390.753 23.628 390.569 24.192 390.569 24.904C390.569 25.632 390.753 26.216 391.121 26.656C391.497 27.088 391.997 27.304 392.621 27.304C393.013 27.304 393.357 27.22 393.653 27.052C393.949 26.876 394.165 26.628 394.301 26.308H395.213C395.013 26.868 394.677 27.312 394.205 27.64C393.741 27.96 393.197 28.12 392.573 28.12ZM401.665 28.12C401.105 28.12 400.605 27.984 400.165 27.712C399.733 27.432 399.389 27.052 399.133 26.572C398.885 26.084 398.761 25.532 398.761 24.916C398.761 24.3 398.885 23.756 399.133 23.284C399.389 22.812 399.733 22.44 400.165 22.168C400.605 21.896 401.101 21.76 401.653 21.76C402.109 21.76 402.517 21.848 402.877 22.024C403.245 22.2 403.545 22.452 403.777 22.78C404.017 23.1 404.169 23.476 404.233 23.908H403.345C403.265 23.516 403.081 23.196 402.793 22.948C402.505 22.7 402.133 22.576 401.677 22.576C401.285 22.576 400.945 22.672 400.657 22.864C400.369 23.056 400.145 23.328 399.985 23.68C399.825 24.032 399.745 24.444 399.745 24.916C399.745 25.388 399.825 25.804 399.985 26.164C400.145 26.524 400.369 26.804 400.657 27.004C400.953 27.204 401.297 27.304 401.689 27.304C402.129 27.304 402.497 27.184 402.793 26.944C403.089 26.696 403.277 26.376 403.357 25.984H404.245C404.173 26.408 404.013 26.784 403.765 27.112C403.525 27.432 403.225 27.68 402.865 27.856C402.505 28.032 402.105 28.12 401.665 28.12ZM405.64 28V19.36H406.6V28H405.64ZM410.02 28V23.992C410.02 23.528 409.904 23.18 409.672 22.948C409.44 22.716 409.096 22.6 408.64 22.6C408.24 22.6 407.884 22.688 407.572 22.864C407.268 23.04 407.028 23.284 406.852 23.596C406.684 23.908 406.6 24.272 406.6 24.688L406.444 23.236C406.652 22.78 406.968 22.42 407.392 22.156C407.824 21.892 408.312 21.76 408.856 21.76C409.496 21.76 410.008 21.944 410.392 22.312C410.784 22.672 410.98 23.148 410.98 23.74V28H410.02ZM415.331 28.12C414.747 28.12 414.231 27.984 413.783 27.712C413.335 27.432 412.983 27.052 412.727 26.572C412.471 26.092 412.343 25.54 412.343 24.916C412.343 24.292 412.467 23.744 412.715 23.272C412.971 22.792 413.327 22.42 413.783 22.156C414.239 21.892 414.763 21.76 415.355 21.76C415.923 21.76 416.415 21.884 416.831 22.132C417.255 22.38 417.579 22.728 417.803 23.176C418.035 23.624 418.151 24.152 418.151 24.76C418.151 24.84 418.147 24.916 418.139 24.988C418.139 25.06 418.131 25.14 418.115 25.228H413.063V24.424H417.527L417.215 24.868C417.215 24.132 417.051 23.568 416.723 23.176C416.403 22.776 415.947 22.576 415.355 22.576C414.747 22.576 414.255 22.788 413.879 23.212C413.511 23.628 413.327 24.192 413.327 24.904C413.327 25.632 413.511 26.216 413.879 26.656C414.255 27.088 414.755 27.304 415.379 27.304C415.771 27.304 416.115 27.22 416.411 27.052C416.707 26.876 416.923 26.628 417.059 26.308H417.971C417.771 26.868 417.435 27.312 416.963 27.64C416.499 27.96 415.955 28.12 415.331 28.12ZM422.021 28.12C421.461 28.12 420.961 27.984 420.521 27.712C420.089 27.432 419.745 27.052 419.489 26.572C419.241 26.084 419.117 25.532 419.117 24.916C419.117 24.3 419.241 23.756 419.489 23.284C419.745 22.812 420.089 22.44 420.521 22.168C420.961 21.896 421.457 21.76 422.009 21.76C422.465 21.76 422.873 21.848 423.233 22.024C423.601 22.2 423.901 22.452 424.133 22.78C424.373 23.1 424.525 23.476 424.589 23.908H423.701C423.621 23.516 423.437 23.196 423.149 22.948C422.861 22.7 422.489 22.576 422.033 22.576C421.641 22.576 421.301 22.672 421.013 22.864C420.725 23.056 420.501 23.328 420.341 23.68C420.181 24.032 420.101 24.444 420.101 24.916C420.101 25.388 420.181 25.804 420.341 26.164C420.501 26.524 420.725 26.804 421.013 27.004C421.309 27.204 421.653 27.304 422.045 27.304C422.485 27.304 422.853 27.184 423.149 26.944C423.445 26.696 423.633 26.376 423.713 25.984H424.601C424.529 26.408 424.369 26.784 424.121 27.112C423.881 27.432 423.581 27.68 423.221 27.856C422.861 28.032 422.461 28.12 422.021 28.12ZM425.995 28V19.12H426.955V28H425.995ZM429.991 28L426.739 24.82L429.871 21.88H431.191L427.675 25.096L427.735 24.532L431.311 28H429.991ZM438.575 28C438.543 27.864 438.519 27.708 438.503 27.532C438.495 27.356 438.491 27.132 438.491 26.86H438.431V23.932C438.431 23.468 438.323 23.128 438.107 22.912C437.899 22.688 437.559 22.576 437.087 22.576C436.623 22.576 436.251 22.672 435.971 22.864C435.699 23.048 435.547 23.312 435.515 23.656H434.591C434.631 23.064 434.879 22.6 435.335 22.264C435.791 21.928 436.387 21.76 437.123 21.76C437.883 21.76 438.447 21.94 438.815 22.3C439.183 22.66 439.367 23.2 439.367 23.92V26.86C439.367 27.036 439.379 27.22 439.403 27.412C439.427 27.596 439.459 27.792 439.499 28H438.575ZM436.475 28.12C435.843 28.12 435.339 27.968 434.963 27.664C434.595 27.352 434.411 26.928 434.411 26.392C434.411 25.856 434.595 25.44 434.963 25.144C435.331 24.848 435.867 24.64 436.571 24.52L438.707 24.16V24.952L436.715 25.264C436.267 25.336 435.927 25.456 435.695 25.624C435.463 25.792 435.347 26.036 435.347 26.356C435.347 26.668 435.451 26.904 435.659 27.064C435.875 27.224 436.191 27.304 436.607 27.304C437.143 27.304 437.579 27.184 437.915 26.944C438.259 26.696 438.431 26.376 438.431 25.984L438.587 26.836C438.459 27.244 438.207 27.56 437.831 27.784C437.463 28.008 437.011 28.12 436.475 28.12ZM443.654 30.58C442.926 30.58 442.318 30.408 441.83 30.064C441.35 29.728 441.058 29.28 440.954 28.72H441.866C441.954 29.04 442.15 29.292 442.454 29.476C442.766 29.668 443.186 29.764 443.714 29.764C444.338 29.764 444.81 29.592 445.13 29.248C445.45 28.912 445.61 28.416 445.61 27.76V26.452L445.73 26.476C445.594 26.94 445.322 27.312 444.914 27.592C444.506 27.864 444.022 28 443.462 28C442.926 28 442.454 27.872 442.046 27.616C441.638 27.352 441.322 26.988 441.098 26.524C440.874 26.06 440.762 25.52 440.762 24.904C440.762 24.28 440.878 23.732 441.11 23.26C441.342 22.788 441.666 22.424 442.082 22.168C442.506 21.904 442.998 21.772 443.558 21.772C444.134 21.772 444.614 21.912 444.998 22.192C445.39 22.472 445.65 22.872 445.778 23.392L445.67 23.404V21.88H446.57V27.76C446.57 28.632 446.31 29.32 445.79 29.824C445.27 30.328 444.558 30.58 443.654 30.58ZM443.702 27.172C444.302 27.172 444.778 26.964 445.13 26.548C445.482 26.132 445.658 25.568 445.658 24.856C445.658 24.16 445.482 23.612 445.13 23.212C444.778 22.804 444.302 22.6 443.702 22.6C443.094 22.6 442.614 22.804 442.262 23.212C441.918 23.62 441.746 24.18 441.746 24.892C441.746 25.588 441.922 26.144 442.274 26.56C442.626 26.968 443.102 27.172 443.702 27.172ZM452.251 28C452.219 27.864 452.195 27.708 452.179 27.532C452.171 27.356 452.167 27.132 452.167 26.86H452.107V23.932C452.107 23.468 451.999 23.128 451.783 22.912C451.575 22.688 451.235 22.576 450.763 22.576C450.299 22.576 449.927 22.672 449.647 22.864C449.375 23.048 449.223 23.312 449.191 23.656H448.267C448.307 23.064 448.555 22.6 449.011 22.264C449.467 21.928 450.063 21.76 450.799 21.76C451.559 21.76 452.123 21.94 452.491 22.3C452.859 22.66 453.043 23.2 453.043 23.92V26.86C453.043 27.036 453.055 27.22 453.079 27.412C453.103 27.596 453.135 27.792 453.175 28H452.251ZM450.151 28.12C449.519 28.12 449.015 27.968 448.639 27.664C448.271 27.352 448.087 26.928 448.087 26.392C448.087 25.856 448.271 25.44 448.639 25.144C449.007 24.848 449.543 24.64 450.247 24.52L452.383 24.16V24.952L450.391 25.264C449.943 25.336 449.603 25.456 449.371 25.624C449.139 25.792 449.023 26.036 449.023 26.356C449.023 26.668 449.127 26.904 449.335 27.064C449.551 27.224 449.867 27.304 450.283 27.304C450.819 27.304 451.255 27.184 451.591 26.944C451.935 26.696 452.107 26.376 452.107 25.984L452.263 26.836C452.135 27.244 451.883 27.56 451.507 27.784C451.139 28.008 450.687 28.12 450.151 28.12ZM454.894 28V21.88H455.854V28H454.894ZM454.822 20.488V19.36H455.926V20.488H454.822ZM457.776 28V21.88H458.676V23.32H458.736V28H457.776ZM462.156 28V23.992C462.156 23.528 462.04 23.18 461.808 22.948C461.576 22.716 461.232 22.6 460.776 22.6C460.376 22.6 460.02 22.688 459.708 22.864C459.404 23.04 459.164 23.284 458.988 23.596C458.82 23.908 458.736 24.272 458.736 24.688L458.58 23.236C458.788 22.78 459.104 22.42 459.528 22.156C459.96 21.892 460.448 21.76 460.992 21.76C461.632 21.76 462.144 21.944 462.528 22.312C462.92 22.672 463.116 23.148 463.116 23.74V28H462.156Z" fill="#FF3939"/>
</svg>
